<svg t="1592203232789" class="icon" viewBox="0 0 1024 1024" version="1.1" xmlns="http://www.w3.org/2000/svg" p-id="1051" width="200" height="200"><path d="M502.1696 365.09013333c25.66826667 0 42.5984-16.93013333 42.5984-42.5984 0-25.66826667-16.93013333-42.05226667-42.5984-42.05226666-25.66826667 0-51.33653333 16.384-51.33653333 42.05226666 0.54613333 25.12213333 26.2144 42.5984 51.33653333 42.5984zM264.6016 279.89333333c-25.66826667 0-51.33653333 16.384-51.33653333 42.05226667S238.93333333 364.544 264.6016 364.544c25.12213333 0 42.5984-16.93013333 42.5984-42.5984 0-25.12213333-16.93013333-42.05226667-42.5984-42.05226667z m745.472 356.62506667c0-134.3488-124.5184-248.49066667-277.43573333-260.5056 0-1.6384 0.54613333-3.2768 0-4.9152-30.58346667-143.08693333-184.59306667-250.6752-357.71733334-250.6752-195.51573333 0-354.98666667 136.53333333-354.98666666 304.19626667 0 90.112 45.8752 170.93973333 133.25653333 234.83733333l-30.58346667 91.20426667c-2.18453333 6.00746667 0 12.56106667 4.36906667 16.384 2.73066667 2.73066667 6.5536 3.82293333 10.37653333 3.82293333 2.18453333 0 4.9152-0.54613333 7.09973334-1.6384l114.14186666-56.79786667 14.19946667 2.73066667c34.95253333 7.09973333 65.536 13.65333333 102.67306667 13.65333333 10.92266667 0 40.96-3.82293333 43.69066666-7.09973333 40.96 102.67306667 154.55573333 176.9472 287.81226667 176.9472 34.4064 0 68.8128-8.192 99.9424-15.83786667l87.92746667 48.05973334c2.18453333 1.09226667 4.9152 2.18453333 7.64586666 2.18453333 3.2768 0 7.09973333-1.09226667 9.8304-3.2768 4.9152-3.82293333 7.09973333-10.37653333 4.9152-16.384l-22.39146666-74.82026667c74.27413333-60.07466667 115.23413333-131.072 115.23413333-202.06933333z m-608.39253333 43.69066667c-9.28426667 0.54613333-16.93013333 1.09226667-26.2144 1.09226666-32.22186667 0-58.9824-5.46133333-90.65813334-12.01493333l-18.0224-3.82293333c-3.2768-0.54613333-6.5536 0-9.28426666 1.09226666l-79.73546667 39.86773334 20.75306667-62.2592c2.18453333-6.00746667 0-12.56106667-5.46133334-16.384C112.2304 572.07466667 71.2704 503.808 71.2704 425.1648c0-141.44853333 135.9872-256.13653333 303.65013333-256.13653333 148.00213333 0 279.07413333 87.92746667 306.3808 207.53066666-155.10186667 2.18453333-280.71253333 120.14933333-280.71253333 247.3984 0 19.6608 0.54613333 38.22933333 6.00746667 56.79786667-1.6384-0.54613333-1.09226667-0.54613333-2.73066667-0.54613333h-2.18453333z m452.74453333 128.34133333c-4.9152 3.82293333-7.09973333 9.8304-4.9152 15.83786667l13.65333333 45.32906666-56.25173333-30.58346666c-2.18453333-1.09226667-4.36906667-1.6384-7.09973333-1.6384-1.09226667 0-2.18453333 0-3.2768 0.54613333-30.03733333 7.64586667-61.16693333 15.29173333-91.7504 15.29173333-140.9024 0-255.5904-97.21173333-255.5904-216.2688s114.688-216.2688 255.5904-216.2688c138.17173333 0 255.5904 98.85013333 255.5904 216.2688-0.54613333 59.52853333-38.22933333 120.69546667-105.94986667 171.48586667z m-241.39093333-282.35093333c-16.93013333 0-33.86026667 16.93013333-33.86026667 33.86026666s16.93013333 33.86026667 33.86026667 33.86026667c25.66826667 0 42.5984-16.93013333 42.5984-33.86026667-0.54613333-16.93013333-17.47626667-33.86026667-42.5984-33.86026666z m186.23146666 0c-16.93013333 0-33.86026667 16.93013333-33.86026666 33.86026666s16.93013333 33.86026667 33.86026666 33.86026667c25.66826667 0 42.5984-16.93013333 42.5984-33.86026667s-16.93013333-33.86026667-42.5984-33.86026666z" p-id="1052"></path></svg>