<svg t="1595323078847" class="icon" viewBox="0 0 1024 1024" version="1.1" xmlns="http://www.w3.org/2000/svg" p-id="1533" width="200" height="200"><path d="M910.35611562 115.27236969a25.66009781 25.66009781 0 0 0-17.79592312-6.71962219c-259.73926125 5.75967655-363.96725437-70.70372155-364.41030656-71.14677375a25.51241345 25.51241345 0 0 0-31.3459322 0c-1.43991938 0-97.91450156 71.0729325-336.83031655 71.07293156-9.19333031 0-18.82971188 0-29.01990844-0.44305218a23.81404781 23.81404781 0 0 0-17.35287188 6.71962312 24.92167781 24.92167781 0 0 0-7.75341093 17.72208188v349.27269468c0 3.876705-4.87357219 380.4709425 398.15610375 509.21448188a20.86036688 20.86036688 0 0 0 7.75341093 0.99686719c2.58446999-0.07384219 5.20586156-0.36920999 7.75341094-0.99686719C908.87927562 869.90076406 917.55571156 486.623825 918.10952656 482.30406781V132.58832094a26.656965 26.656965 0 0 0-7.75341094-17.31595125z m-42.93912656 42.2007075v324.72022687c0 3.39673219-9.59946094 347.27896031-355.66002844 459.74033813-360.09054844-119.03331563-356.21384343-445.30422563-356.21384343-459.18652219v-325.27404281h3.876705c205.17001781 0 312.27784875-48.44035687 351.78332343-71.9959575 40.05928875 23.55560063 146.72406845 71.99595751 351.78332251 71.9959575h4.43052093z" p-id="1534"></path><path d="M669.003515 456.64397001h-27.72767344V401.15170156A111.05837906 111.05837906 0 0 0 530.54975094 290.49945313a111.05837906 111.05837906 0 0 0-110.72608969 110.68916906V456.64397001h-27.80151562a27.83843719 27.83843719 0 0 0-27.72767344 27.6907528v221.52602157a27.83843719 27.83843719 0 0 0 27.69075281 27.72767437h276.90752719a27.83843719 27.83843719 0 0 0 27.69075281-27.69075281v-221.52602249a27.57998999 27.57998999 0 0 0-27.57999-27.69075282zM461.28594875 401.15170156c0-38.73013313 30.42290719-69.22688156 69.26380219-69.22688156 38.87781655 0 69.26380313 30.38598563 69.26380312 69.22688156V456.64397001H461.28594875V401.26246438z m193.83526875 290.67906189H405.86752156v-193.79834814h249.25369594v193.83526875z" p-id="1535"></path><path d="M512.08924906 512.02547563c-20.97112969 0-37.03176656 19.19892187-37.03176655 44.34212531 0 15.87603187 7.01499094 30.49674938 18.46050187 38.43476437v42.8283647c0 12.18393094 8.27030437 22.07876063 18.46050187 22.07876062s18.46050188-9.89482875 18.46050188-22.11568126v-42.79144406c11.15014311-7.31035875 18.46050188-22.07876063 18.46050188-38.43476437 0.11076281-25.10628281-15.94987312-44.3421253-36.81024095-44.34212531z" p-id="1536"></path></svg>