<svg t="1592463810625" class="icon" viewBox="0 0 1024 1024" version="1.1" xmlns="http://www.w3.org/2000/svg" p-id="1205" width="200" height="200"><path d="M923.90000029 693.42499971c0.28125001-0.61875001 0.39375001-1.27500029 0.61875-1.9125C948.81875029 635.67500029 962 574.79374971 962 512c0-32.9625-3.65625001-65.04374971-10.42499971-96.00000029-0.18749971-1.06875001-0.43125029-2.09999971-0.71250029-3.1312503-39.7125-175.87500029-182.64375001-312.95625029-361.59374971-344.0999997-1.14374971-0.24374971-2.25-0.50625001-3.41250028-0.6000003C561.79999971 64.17500029 537.14375001 62 512 62 297.96874999 62 118.51250029 212.22500029 73.17500029 412.73749971c-0.29999971 1.10625029-0.58124971 2.23125029-0.7875 3.375C65.65624999 447.01250029 62 479.07500029 62 512c0 6.35625001 0.13124971 12.69375029 0.39375001 19.0125 0.74999971 18.09375029 15.80625001 31.78125001 34.12500028 31.42500029 18.09375029-0.76875029 32.15625029-16.04999971 31.3875-34.14375C127.68125029 522.87499971 127.5875 517.45625001 127.5875 512c0-19.63125001 1.50000029-38.925 4.34999971-57.78749971l122.53124971 0c-0.15000029 6.14999971-0.41249971 12.22499971-0.41249971 18.4312503 0 18.09375029 14.68125001 32.79375001 32.79375 32.79375s32.79375001-14.69999971 32.79375-32.79375c0-6.1875 0.24374971-12.28124971 0.41249971-18.4312503l159.16875029 0 0 52.0687503c0 18.1125 14.68125001 32.79375001 32.79375 32.79375 18.09375029 0 32.79375001-14.68125001 32.79375-32.79375l0-52.0687503 159.13125 0c0.18749971 6.14999971 0.41249971 12.24375029 0.41249971 18.4312503 0 56.5875-7.0875 110.83124971-21.05624971 161.19375028-4.85624971 17.47500029 5.38125029 35.55 22.8187503 40.3687503 2.925 0.80624971 5.88750029 1.19999971 8.7937497 1.19999971 14.36249971 0 27.54375029-9.50625001 31.57499971-24.03749971 15.56250029-56.08125001 23.45625001-116.2125 23.45625-178.7437503 0-6.1875-0.28125001-12.28124971-0.43125029-18.43125028l122.56874999 0c2.86875001 18.86249971 4.34999971 38.15624971 4.34999971 57.7874997 0 53.62499971-11.28750029 105.65624971-32.02499971 153.3375-9.50625001 13.44375001-68.55000029 88.74375029-205.03124999 99.8624997-18.13124971 1.48124971-34.48125001 2.21249971-49.91249971 2.21249972-72.65625029 0-135.20625029-16.59375001-194.0625-51.80625l73.44375029-78.28125029c8.96249971-9.52499971 11.38124971-23.45625001 6.20624971-35.4750003-5.19374971-11.99999971-17.02500029-19.74375001-30.09375-19.74375001L168.27499971 582.0875c-18.09375029 0-32.79375001 14.66250029-32.79375 32.77500029l0 296.36250029c0 13.275 7.9875 25.23750029 20.25 30.30000031 12.2625 5.08124971 26.34374971 2.28750029 35.7374997-7.10624972l73.8937503-73.89375028c41.43750029 36.46874971 131.36249971 101.38124971 246.6187497 101.43749969l0.11250001 0c134.775 0 321.59999971-68.85 408.80625029-262.0125 0.225-0.50625001 0.45-1.03124971 0.6937497-1.53749969C922.36249971 696.76250029 923.14999971 695.15 923.90000029 693.42499971M452.78749971 132.16249971c8.70000029-1.35 17.53125029-2.32499971 26.41875028-3.07500029l0 106.12500029c-33.54374971-3.63750029-65.71874971-12.86250029-95.73749998-27.3562497C403.1 174.89374999 426.48125029 148.7375 452.78749971 132.16249971M544.79375001 129.08750029c8.70000029 0.74999971 17.38125001 1.66875029 25.91250028 2.98125 26.23124971 16.36874999 49.76250029 42.65624971 69.54374971 76.10625-29.94374971 14.34375001-62.04375001 23.47499971-95.45624999 27.07499971L544.79375001 129.08750029zM147.98750029 388.62500029c24.26249971-71.38125001 68.94375029-133.36875001 127.08749971-179.02500029 2.025 4.91249971 5.13749971 9.45 9.58124971 13.03125029 4.34999971 3.52500029 8.98125029 6.65624971 13.5 9.9375003-19.05000029 46.40625001-32.34375001 99.31875029-39.05624971 156.03749999L147.98750029 388.60624971zM325.08124999 388.62500029c5.79375001-44.08125029 16.12500029-85.31250029 30.11249972-121.87500029 38.88749971 18.61875001 80.86875029 30.46875029 124.0125003 34.44374971l0 87.4500003L325.08124999 388.64374999zM544.79375001 388.62500029l0-87.4125c42.95625029-3.89999971 84.825-15.61875029 123.63749998-34.0875 14.00625001 36.58124971 24.43124971 77.71875029 30.31875001 121.5L544.79375001 388.62500029zM764.71250029 388.62500029c-6.80625001-56.25-20.28750029-108.99375029-39.35625028-155.41875 4.51874971-3.28124971 9.15000029-6.39375029 13.5-9.88125029 4.70625029-3.76875001 7.94999971-8.56874971 9.9749997-13.79999971 58.20000029 45.675 102.88125001 107.68124971 127.1437497 179.1L764.71250029 388.62500029zM512.09375029 929.20625001L512 896.4125c-127.18125001-0.05625001-221.81249971-102.73124971-222.71249971-103.70625029-6.00000029-6.67500029-14.5125-10.61250029-23.5125-10.85625-0.29999971 0-0.58124971 0-0.8624997 0-8.68124971 0-17.04375001 3.46875029-23.175 9.60000029l-40.66875 40.66875001 0-184.40624972L389.18750029 647.71250029l-48.20625 51.35625c-6.43124971 6.84375029-9.61875001 16.14375001-8.7374997 25.51875029 0.9 9.35624971 5.75624971 17.90624971 13.3875 23.41874971 78.71249971 57.18750029 164.99999971 84.99375001 263.8125 84.99375 17.25000029 0 35.30625029-0.80624971 55.2562497-2.43749971 30.78749971-2.51250029 58.36875029-7.875 83.08125-15.03749969-6.99374971 5.41874971-14.11875001 10.70624971-21.5250003 15.67500028-1.08749971 0.73125001-2.00625029 1.64999971-2.9999997 2.49374971-69.24375001 44.49375001-147.09375001 62.71875001-211.1625 62.71875001L512.09375029 929.20625001z" p-id="1206"></path></svg>