<svg t="1593482929448" class="icon" viewBox="0 0 1024 1024" version="1.1" xmlns="http://www.w3.org/2000/svg" p-id="1720" width="200" height="200"><path d="M434.45197938 483.49944542h17.89569707a20.87831325 20.87831325 0 0 1 16.57008986 6.29663414 22.20392044 22.20392044 0 0 1 5.96523236 15.57588449 20.87831325 20.87831325 0 0 1-5.96523236 15.57588448 22.20392044 22.20392044 0 0 1-16.57008986 5.96523236h-17.89569707v54.68129659l5.30242876-3.97682157 5.63383056-4.30822338a27.83775099 27.83775099 0 0 1 18.55850066-5.96523235 19.22130427 19.22130427 0 0 1 14.91308089 10.93625932 18.22709886 18.22709886 0 0 1 3.97682156 17.23289348 33.14017975 33.14017975 0 0 1-11.59906291 14.58167909l-19.22130425 11.93046471-18.22709886 10.27345572v99.42053927a45.40204626 45.40204626 0 0 1-9.94205392 31.48317076 41.75662649 41.75662649 0 0 1-33.14017977 11.26766112 90.47269072 90.47269072 0 0 1-13.58747369 0l-16.90149168-3.97682157a24.52373301 24.52373301 0 0 1-13.5874737-10.60485753 20.54691145 20.54691145 0 0 1-2.31981258-17.23289347 21.54111683 21.54111683 0 0 1 11.59906292-14.58167908 30.15756357 30.15756357 0 0 1 19.22130425 0h14.58167909a13.2560719 13.2560719 0 0 0 0-4.97102697v-72.24559187l-8.28504494 3.31401799-8.28504493 2.65121436a30.15756357 30.15756357 0 0 1-21.20971505 0 21.54111683 21.54111683 0 0 1-9.61065213-13.91887548 24.19233122 24.19233122 0 0 1 0-18.22709886 30.15756357 30.15756357 0 0 1 16.90149168-10.60485754 186.24781022 186.24781022 0 0 0 30.48896537-10.60485751v-76.55381523h-26.5121438a19.22130427 19.22130427 0 0 1-21.54111684-21.87251864 21.87251863 21.87251863 0 0 1 5.30242876-15.90728628 20.21550965 20.21550965 0 0 1 16.23868808-5.63383055h26.5121438v-44.73924267a18.22709886 18.22709886 0 0 1 6.62803595-16.57008988 29.82616178 29.82616178 0 0 1 15.24448269-3.97682157 25.5179384 25.5179384 0 0 1 15.57588448 4.30822337 18.88990245 18.88990245 0 0 1 5.96523235 16.23868808z m265.12143803 147.47379989a19.55270605 19.55270605 0 0 1-6.62803596 16.23868808 23.86092942 23.86092942 0 0 1-15.90728628 5.63383056h-21.87251864v99.42053925a24.85513482 24.85513482 0 0 1-5.30242876 17.23289348 22.20392044 22.20392044 0 0 1-17.23289347 6.29663416 20.21550965 20.21550965 0 0 1-17.23289347-6.29663416 26.51214381 26.51214381 0 0 1-4.63962517-17.23289348v-99.42053925h-54.68129659a212.09715042 212.09715042 0 0 1-5.96523235 38.77401031 139.52015677 139.52015677 0 0 1-12.9246701 31.15176897 121.2930579 121.2930579 0 0 1-19.55270606 25.5179384 237.94649063 237.94649063 0 0 1-27.17494739 22.20392045 28.1691528 28.1691528 0 0 1-22.86672404 5.96523235 24.52373301 24.52373301 0 0 1-14.91308089-13.9188755 22.20392044 22.20392044 0 0 1 11.59906291-31.48317076 161.72407719 161.72407719 0 0 0 18.22709887-13.2560719 61.97213614 61.97213614 0 0 0 13.9188755-15.57588448 75.22820803 75.22820803 0 0 0 9.27925033-20.87831325 128.58389744 128.58389744 0 0 0 5.30242876-28.50055459h-23.86092943a24.19233122 24.19233122 0 0 1-16.90149167-5.63383056 20.21550965 20.21550965 0 0 1-5.96523236-16.23868808 20.87831325 20.87831325 0 0 1 5.96523236-16.90149168 25.84934021 25.84934021 0 0 1 16.90149167-4.97102696H512v-70.25718107h-9.61065213a30.15756357 30.15756357 0 0 1-18.55850067-4.97102697 19.88410785 19.88410785 0 0 1-6.29663413-17.23289347 20.21550965 20.21550965 0 0 1 6.29663413-17.23289346 28.1691528 28.1691528 0 0 1 18.55850067-5.30242877h21.54111684c-3.31401797-5.63383056-6.95943775-11.26766112-10.93625932-17.23289347a145.15398732 145.15398732 0 0 0-10.93625931-14.91308089 37.77980492 37.77980492 0 0 1-7.95364315-17.23289347 20.87831325 20.87831325 0 0 1 8.94784854-15.90728628 20.21550965 20.21550965 0 0 1 17.23289347-5.96523236 25.5179384 25.5179384 0 0 1 16.57008988 11.26766112 244.57452658 244.57452658 0 0 1 14.91308088 20.54691145c3.97682157 6.95943775 8.28504494 13.9188755 12.5932683 20.87831324s4.30822337 7.29083955 5.63383057 9.94205392a24.19233122 24.19233122 0 0 1 2.98261618 8.61644674h23.52952762c7.29083955-9.27925033 13.5874737-18.55850066 19.55270606-27.17494739a280.36592071 280.36592071 0 0 0 16.57008987-30.15756357c8.61644674-16.23868809 19.55270605-20.54691145 33.14017975-12.26186652a22.53532223 22.53532223 0 0 1 10.93625932 13.5874737 31.15176897 31.15176897 0 0 1-4.30822336 20.21550965l-9.94205392 17.89569707c-3.64541977 5.96523235-7.29083955 11.93046471-11.59906293 17.89569706h14.91308089a22.86672403 22.86672403 0 0 1 16.90149168 5.30242877 22.20392044 22.20392044 0 0 1 5.63383056 17.23289346 21.87251863 21.87251863 0 0 1-5.63383056 17.23289347 24.52373301 24.52373301 0 0 1-16.90149168 4.97102697h-11.26766111v70.25718107h23.19812582a25.18653662 25.18653662 0 0 1 15.90728629 4.97102696 20.21550965 20.21550965 0 0 1 5.96523236 16.90149168z m-142.83417474-21.87251864H611.42053925v-70.25718107h-54.68129658z" p-id="1721"></path><path d="M695.92799763 1001.81185675H346.29910124c-93.4553069 0-158.07865742-22.20392044-196.85266774-66.2803595S100.39896747 828.15731485 114.31784297 747.62667805l33.14017975-386.74589773v-3.64541977a165.70089876 165.70089876 0 0 1 161.72407719-146.14819271h427.50831881c61.30933253 0 135.87473698 38.11120672 161.39267541 144.82258553a25.5179384 25.5179384 0 0 1 0 4.97102695l33.14017974 389.39711211a213.75415941 213.75415941 0 0 1-40.76242109 178.62556887c-41.75662649 47.05905525-108.6997896 72.90839547-194.53285515 72.90839545zM211.74997143 368.17161987l-33.14017975 387.74010312c-10.27345573 62.96634153-3.31401797 107.70558419 19.88410786 135.21193338s73.57119905 44.40784087 146.47959451 44.40784088h350.95450358c46.06484987 0 108.03698599-8.61644674 143.49697834-50.04167144a153.10763045 153.10763045 0 0 0 24.8551348-127.58969204l-33.14017975-389.0657103c-14.2502773-57.33251097-50.04167143-91.46689612-96.10652128-91.46689612H307.85649271c-18.22709886 0-78.54222602 6.62803595-96.10652128 90.80409252z" p-id="1722"></path><path d="M395.01516547 190.20885459h-5.96523235a33.14017975 33.14017975 0 0 1-26.51214381-38.44260851A161.0612736 161.0612736 0 0 1 677.70089876 147.45802272a33.14017975 33.14017975 0 1 1-66.28035951 13.25607189 95.11231589 95.11231589 0 0 0-186.579212 1.9884108 33.14017975 33.14017975 0 0 1-29.82616178 27.50634918z" p-id="1723"></path></svg>