<svg t="1592203104181" class="icon" viewBox="0 0 1024 1024" version="1.1" xmlns="http://www.w3.org/2000/svg" p-id="1021" width="200" height="200"><path d="M666.7122544 716.54813193H316.37062198c-16.03618857 0-29.37240703 9.12262763-29.37240704 20.45432286s12.92713154 20.45432197 29.37240703 20.45432197h350.34163243c16.03618857 0 29.37240703-9.12262763 29.37240703-20.45432197s-13.33621846-20.45432197-29.37240703-20.45432286z" p-id="1022"></path><path d="M659.34869873 62.09163565v0.89999032c-3.68177783 0-19.79978379-1.34998506-60.34025127-0.89999032H244.04413818C177.24032158 62.09163565 123.36363652 115.19105645 123.36363652 180.44034453v663.21094659C123.36363652 908.9005792 177.24032158 962 244.04413818 962h535.90324482c66.8038166 0 120.68050166-53.0994208 120.68050167-118.34870888V298.74814473L659.34869873 62.13254434z m182.77982403 238.49739755l-122.93047706-1.79997978h4.13177256c-28.06332979 0-67.66289825-26.59061865-67.66289824-58.94935753l-0.94089814-122.39866406 187.40250088 183.14800137z m6.46356532 551.61216475c0 33.29963701-27.61333506 60.74933731-61.69023545 60.74933731H237.08966856c-34.07690127 0-61.69023633-26.99970557-61.69023633-60.74933731V172.34043242c0-33.29963701 27.61333506-60.74933731 61.69023633-60.74933731h362.85967792a3855.23067041 3855.23067041 0 0 0 0.89999034 121.04867989c0 67.04926875 55.26757881 121.04867988 123.87137607 121.04867901h123.8713752v498.51274394z" p-id="1023"></path><path d="M666.7122544 513.51852852H316.37062198c-16.03618857 0-29.37240703 8.79535898-29.37240704 19.67705859 0 10.9226083 12.92713154 19.71796641 29.37240703 19.71796641h350.34163243c16.03618857 0 29.37240703-8.79535898 29.37240703-19.71796641 0-10.88169961-13.33621846-19.67705771-29.37240703-19.67705859zM522.91836846 348.37033028h-217.63398955C294.97540097 348.37033028 286.99821494 357.16568926 286.99821494 368.08829756c0 10.88169961 8.01809473 19.67705771 18.24525527 19.67705771h217.67489825c10.22716143 0 18.24525528-8.79535898 18.24525527-19.67705771 0-10.9226083-8.01809473-19.71796641-18.24525527-19.71796729z" p-id="1024"></path></svg>