<svg t="1593483603476" class="icon" viewBox="0 0 1024 1024" version="1.1" xmlns="http://www.w3.org/2000/svg" p-id="1412" width="200" height="200"><path d="M460.8 989.86666667C225.28 989.86666667 34.13333333 798.72 34.13333333 563.2s191.14666667-426.66666667 426.66666667-426.66666667c18.77333333 0 34.13333333 15.36 34.13333333 34.13333334v358.4h358.4c18.77333333 0 34.13333333 15.36 34.13333334 34.13333333 0 235.52-191.14666667 426.66666667-426.66666667 426.66666667z m-34.13333333-783.36c-180.90666667 17.06666667-324.26666667 170.66666667-324.26666667 356.69333333 0 197.97333333 160.42666667 358.4 358.4 358.4 186.02666667 0 339.62666667-143.36 356.69333333-324.26666667H460.8c-18.77333333 0-34.13333333-15.36-34.13333333-34.13333333V206.50666667zM955.73333333 460.8H597.33333333c-18.77333333 0-34.13333333-15.36-34.13333333-34.13333333V68.26666667c0-18.77333333 15.36-34.13333333 34.13333333-34.13333334 216.74666667 0 392.53333333 175.78666667 392.53333334 392.53333334 0 18.77333333-15.36 34.13333333-34.13333334 34.13333333z m-324.26666666-68.26666667h288.42666666C904.53333333 240.64 783.36 119.46666667 631.46666667 104.10666667V392.53333333z" p-id="1413"></path></svg>