<svg t="1592462839526" class="icon" viewBox="0 0 1024 1024" version="1.1" xmlns="http://www.w3.org/2000/svg" p-id="1175" width="200" height="200"><path d="M839.6 106.31176455a105.88235273 105.88235273 0 0 1 105.88235273 105.88235274v635.29411816a105.88235273 105.88235273 0 0 1-105.88235273 105.88235273h-635.29411729a105.88235273 105.88235273 0 0 1-105.88235361-105.88235273v-635.29411816a105.88235273 105.88235273 0 0 1 105.88235361-105.88235274h635.29411729z m0 52.94117637h-635.29411729a52.94117637 52.94117637 0 0 0-52.62352998 46.74705908l-0.31764726 6.19411729v635.29411816a52.94117637 52.94117637 0 0 0 46.74705908 52.57058819l6.19411816 0.37058818h635.29411729a52.94117637 52.94117637 0 0 0 52.57058818-46.74705909l0.37058819-6.19411728v-635.29411816a52.94117637 52.94117637 0 0 0-46.8-52.57058818l-6.14117637-0.37058819z m-46.58823545 251.73529453a26.47058818 26.47058818 0 0 1 2.48823545 33.82941182l-3.17647089 3.6-168.98823458 163.42941181a26.47058818 26.47058818 0 0 1-33.67058906 2.64705821l-3.6-3.12352911-124.46470547-126.58235273-173.48823545 164.7a26.47058818 26.47058818 0 0 1-33.82941182 2.17058818l-3.5470582-3.1764709a26.47058818 26.47058818 0 0 1-2.22352998-33.77647002l3.1764709-3.6 192.33529365-182.59411816a26.47058818 26.47058818 0 0 1 33.51176543-2.43529366l3.6 3.07058819 124.25294092 126.37058819 150.19411728-145.16470635a26.47058818 26.47058818 0 0 1 37.42941182 0.63529453z" p-id="1176"></path></svg>