<svg t="1593483466324" class="icon" viewBox="0 0 1024 1024" version="1.1" xmlns="http://www.w3.org/2000/svg" p-id="1382" width="200" height="200"><path d="M386.84444445 466.48888889H159.28888889c-43.91822222 0-79.64444445-35.72622222-79.64444444-79.64444444V159.28888889c0-43.91822222 35.72622222-79.64444445 79.64444444-79.64444444h227.55555556c43.91822222 0 79.64444445 35.72622222 79.64444444 79.64444444v227.55555556c0 43.91822222-35.72622222 79.64444445-79.64444444 79.64444444zM159.28888889 147.91111111c-6.25777778 0-11.37777778 5.12-11.37777778 11.37777778v227.55555556c0 6.25777778 5.12 11.37777778 11.37777778 11.37777777h227.55555556c6.25777778 0 11.37777778-5.12 11.37777777-11.37777777V159.28888889c0-6.25777778-5.12-11.37777778-11.37777777-11.37777778H159.28888889zM386.84444445 944.35555555H159.28888889c-43.91822222 0-79.64444445-35.72622222-79.64444444-79.64444444V637.15555555c0-43.91822222 35.72622222-79.64444445 79.64444444-79.64444444h227.55555556c43.91822222 0 79.64444445 35.72622222 79.64444444 79.64444444v227.55555556c0 43.91822222-35.72622222 79.64444445-79.64444444 79.64444444zM159.28888889 625.77777778c-6.25777778 0-11.37777778 5.12-11.37777778 11.37777777v227.55555556c0 6.25777778 5.12 11.37777778 11.37777778 11.37777778h227.55555556c6.25777778 0 11.37777778-5.12 11.37777777-11.37777778V637.15555555c0-6.25777778-5.12-11.37777778-11.37777777-11.37777777H159.28888889zM910.22222222 216.17777778H591.64444445c-18.88711111 0-34.13333333-15.24622222-34.13333334-34.13333333s15.24622222-34.13333333 34.13333334-34.13333334h318.57777777c18.88711111 0 34.13333333 15.24622222 34.13333333 34.13333334s-15.24622222 34.13333333-34.13333333 34.13333333zM910.22222222 398.22222222H591.64444445c-18.88711111 0-34.13333333-15.24622222-34.13333334-34.13333333s15.24622222-34.13333333 34.13333334-34.13333334h318.57777777c18.88711111 0 34.13333333 15.24622222 34.13333333 34.13333334s-15.24622222 34.13333333-34.13333333 34.13333333zM910.22222222 694.04444445H591.64444445c-18.88711111 0-34.13333333-15.24622222-34.13333334-34.13333334s15.24622222-34.13333333 34.13333334-34.13333333h318.57777777c18.88711111 0 34.13333333 15.24622222 34.13333333 34.13333333s-15.24622222 34.13333333-34.13333333 34.13333334zM910.22222222 876.08888889H591.64444445c-18.88711111 0-34.13333333-15.24622222-34.13333334-34.13333334s15.24622222-34.13333333 34.13333334-34.13333333h318.57777777c18.88711111 0 34.13333333 15.24622222 34.13333333 34.13333333s-15.24622222 34.13333333-34.13333333 34.13333334z" p-id="1383"></path></svg>