<svg t="1592203357297" class="icon" viewBox="0 0 1229 1024" version="1.1" xmlns="http://www.w3.org/2000/svg" p-id="1112" width="200" height="200"><path d="M1100.52230645 423.43051748l-466.59847676 225.22496659a73.59058213 73.59058213 0 0 1-64.05439482-0.08996396L104.71038242 422.71080576a70.35187676 70.35187676 0 0 1-40.03399599-63.10977188c0-26.67433711 15.51879667-51.09957334 39.94403203-63.06479032L568.92481279 69.51199678a73.1407623 73.1407623 0 0 1 64.2793043-1e-8l467.45313574 227.56403146c24.6501457 12.01019854 40.03399599 36.43543477 40.033996 63.24471824 0 26.80928261-15.60876065 51.23451885-40.16894239 63.10977101zM600.99699219 132.57678711L136.82754425 359.51106992l465.11407 225.80973193 466.5085128-225.13500175-467.45313486-227.60901299zM115.28115753 481.09746553l486.79540312 252.39410507 486.93034863-251.67439247a36.48041719 36.48041719 0 0 1 48.67054453 14.70912011 34.86106406 34.86106406 0 0 1-15.02399444 47.54599278l-503.84358808 260.40090497a37.24511133 37.24511133 0 0 1-16.86825703 4.13834591 37.11016494 37.11016494 0 0 1-16.91323858-4.13834591L81.40969707 543.39756084a34.90604649 34.90604649 0 0 1-14.93402959-47.72592158 36.57038115 36.57038115 0 0 1 48.80549003-14.57417373z m2.78888466 147.13618184l483.87157206 257.79194824 485.4909252-257.20718204a36.6153627 36.6153627 0 0 1 49.03039952 14.21431788 34.86106406 34.86106406 0 0 1-14.5291922 47.81588555l-502.67405564 266.38351347a36.88525547 36.88525547 0 0 1-34.50120822-0.13494638L83.56883398 690.17388682a34.90604649 34.90604649 0 0 1-14.43922733-47.8608671 36.43543477 36.43543477 0 0 1 48.94043554-14.07937235z" p-id="1113"></path></svg>