<svg t="1595571271623" class="icon" viewBox="0 0 1024 1024" version="1.1" xmlns="http://www.w3.org/2000/svg" p-id="1685" width="200" height="200"><path d="M900.36148148 380.31956741a25.89076502 25.89076502 0 0 0 25.89076503-25.89076624V226.47663882A128.93601185 128.93601185 0 0 0 797.36801659 97.74775349H226.63198341A128.93601185 128.93601185 0 0 0 97.74775349 226.47663882v415.70212977A128.93601185 128.93601185 0 0 0 226.63198341 770.90765392h570.73603318A128.93601185 128.93601185 0 0 0 926.25224651 642.17876859V512a25.89076502 25.89076502 0 0 0-51.78153006 0v130.17876859A77.15448059 77.15448059 0 0 1 797.36801659 719.12612386H226.63198341A77.15448059 77.15448059 0 0 1 149.52928355 642.17876859V226.47663882A77.15448059 77.15448059 0 0 1 226.63198341 149.52928355h570.73603318A77.15448059 77.15448059 0 0 1 874.47071645 226.47663882v127.95216235a25.89076502 25.89076502 0 0 0 25.89076503 25.89076624M852.87781808 874.47071645H173.24522549a25.89076502 25.89076502 0 0 0 0 51.78153006h679.63259259a25.89076502 25.89076502 0 0 0 0-51.78153006" p-id="1686"></path></svg>