<svg t="1595570716167" class="icon" viewBox="0 0 1024 1024" version="1.1" xmlns="http://www.w3.org/2000/svg" p-id="1565" width="200" height="200"><path d="M1002.117125 357.680552l-0.26150699-0.637347-0.109468-0.688432c0-0.156904-0.047436-0.261507-0.047436-0.45125099l-0.109468-0.26150701c-0.318673-1.37808-0.636131-2.517764-1.16401001-3.549195l-91.788904-200.367763-0.052301-0.209205c-11.550088-31.971949-45.24555001-56.725092-85.826547-56.77739399L199.52341801 94.73845799c-39.839048 0-71.5726 23.561159-82.90861801 55.05753001l-0.109468 0.28948201-93.309292 203.54233499c-0.214071 0.688432-0.532744 1.829332-0.740733 2.96415l-0.109468 0.45125099-0.156904 0.39895001c-5.56340599 15.893535-8.371868 32.209129-8.371868 48.60986599 0.052301 56.815099 33.324487 108.94983399 86.833653 136.28399001l6.194672 3.07361799c21.40464 9.697647 46.35847401 14.648032 74.22415799 14.64803202 49.430876-0.209205 126.862445-30.155997 158.54247901-65.20034701l6.305356-7.022979 6.300491 7.022979c58.54834199 44.866061 111.57706599 60.61120601 160.685619 60.92987901 48.951649-0.39773399 108.9547-16.06381801 157.170481-61.14395001l6.305356-6.912295 6.305356 6.912295c31.624084 35.150169 110.91296 65.015468 160.50074 65.015468 30.46007399-0.209205 57.375819-6.03411799 79.939603-17.608533 53.72688599-27.342669 87.051373-79.682961 87.051373-136.68658901C1010.279788 389.361803 1007.47132599 372.884439 1002.117125 357.680552L1002.117125 357.680552zM900.507727 490.495623c-15.632028 7.920617-34.96407399 12.077967-57.375819 12.158244-41.748656 0-112.503895-27.708779-134.5398-60.925014l-0.318673-0.346649-0.214071-0.44638599c-1.221176-2.46546199-3.282823-6.70430599-7.150692-10.595284-4.133025-4.31912-11.706993-11.450351-24.425956-11.45035101-9.95915399 0-19.280961 5.620573-24.368789 11.49778701l-0.20920501 0.18974499c-3.60636201 3.81070201-5.725175 7.84034-7.09839099 10.485816l-0.214071 0.346649-0.214071 0.343c-21.879001 33.005813-90.35852199 62.74948-131.475913 63.03896201-41.425117-0.184879-113.107185-31.035389-135.09565401-64.17013101l-0.20920499-0.294347-0.266372-0.451251c-1.27347801-2.514115-5.273924-7.327057-8.24293901-10.40067499l-0.10460299-0.156904c-5.40650199-5.98668199-12.952495-11.55495399-23.438311-11.55495401-9.957937 0-17.97342599 5.169321-22.63433001 10.310668l-0.21407099 0.21285401c-4.128159 4.261953-7.350167 9.764544-8.514176 12.11567299l-0.214071 0.503553-0.317457 0.452468c-22.093072 32.982703-84.030056 59.602884-125.565858 59.712352-21.081101 0-39.41090599-3.57717001-54.457889-10.595284l-0.104603 0-1.85730701-1.007105c-39.150616-19.36610201-55.499051-46.05318-55.551352-87.407752 0-12.262847 2.171115-24.525693 6.51212901-36.41756499 0.214071-0.480443 0.428141-1.1409 0.585046-1.88163301l0.156904-0.63734699 85.288938-183.37346701c5.668009-15.23186199 11.782404-22.966383 31.861265-22.966383l618.466127 0 0.21407099 0.052301c8.950832 0.503553 21.684391 1.77703001 30.05139401 24.159584l91.20385799 184.998458 0.10460301 0.63613101c0.214071 0.845336 0.532744 1.772165 0.745599 2.62236599 4.34222999 11.897953 6.56564601 24.051332 6.56564599 36.237551C947.981559 446.28515401 939.078163 470.810847 900.507727 490.495623L900.507727 490.495623zM900.507727 490.495623" p-id="1566"></path><path d="M820.662997 930.249187L206.308001 930.249187c-37.700773 0-68.37491799-24.425956-68.374918-61.794676L137.93308201 636.07830999c0-20.809864 10.894497-37.681312 31.70436-37.681312 20.81108 0 32.69808601 16.866584 32.69808599 37.681312l0 231.75466601 619.311463 0L821.646993 636.07830999c0-20.809864 11.891872-37.681312 32.702952-37.681312s34.692836 16.866584 34.692836 37.681312l0 232.37741701C889.042781 905.823231 858.368636 930.249187 820.662997 930.249187L820.662997 930.249187zM820.662997 930.249187" p-id="1567"></path><path d="M770.60937001 310.85258201L250.698484 310.85258201c-17.165796 0-31.08282601-13.91702999-31.08282601-31.08282601 0-17.165796 13.91702999-31.08282601 31.08282601-31.08282599l519.915751 0c17.165796 0 31.08282601 13.91702999 31.082826 31.08282599C801.697061 296.935552 787.780031 310.85258201 770.60937001 310.85258201L770.60937001 310.85258201zM770.60937001 310.85258201" p-id="1568"></path></svg><svg t="1595570716167" class="icon" viewBox="0 0 1024 1024" version="1.1" xmlns="http://www.w3.org/2000/svg" p-id="1565" width="200" height="200"><path d="M1002.117125 357.680552l-0.26150699-0.637347-0.109468-0.688432c0-0.156904-0.047436-0.261507-0.047436-0.45125099l-0.109468-0.26150701c-0.318673-1.37808-0.636131-2.517764-1.16401001-3.549195l-91.788904-200.367763-0.052301-0.209205c-11.550088-31.971949-45.24555001-56.725092-85.826547-56.77739399L199.52341801 94.73845799c-39.839048 0-71.5726 23.561159-82.90861801 55.05753001l-0.109468 0.28948201-93.309292 203.54233499c-0.214071 0.688432-0.532744 1.829332-0.740733 2.96415l-0.109468 0.45125099-0.156904 0.39895001c-5.56340599 15.893535-8.371868 32.209129-8.371868 48.60986599 0.052301 56.815099 33.324487 108.94983399 86.833653 136.28399001l6.194672 3.07361799c21.40464 9.697647 46.35847401 14.648032 74.22415799 14.64803202 49.430876-0.209205 126.862445-30.155997 158.54247901-65.20034701l6.305356-7.022979 6.300491 7.022979c58.54834199 44.866061 111.57706599 60.61120601 160.685619 60.92987901 48.951649-0.39773399 108.9547-16.06381801 157.170481-61.14395001l6.305356-6.912295 6.305356 6.912295c31.624084 35.150169 110.91296 65.015468 160.50074 65.015468 30.46007399-0.209205 57.375819-6.03411799 79.939603-17.608533 53.72688599-27.342669 87.051373-79.682961 87.051373-136.68658901C1010.279788 389.361803 1007.47132599 372.884439 1002.117125 357.680552L1002.117125 357.680552zM900.507727 490.495623c-15.632028 7.920617-34.96407399 12.077967-57.375819 12.158244-41.748656 0-112.503895-27.708779-134.5398-60.925014l-0.318673-0.346649-0.214071-0.44638599c-1.221176-2.46546199-3.282823-6.70430599-7.150692-10.595284-4.133025-4.31912-11.706993-11.450351-24.425956-11.45035101-9.95915399 0-19.280961 5.620573-24.368789 11.49778701l-0.20920501 0.18974499c-3.60636201 3.81070201-5.725175 7.84034-7.09839099 10.485816l-0.214071 0.346649-0.214071 0.343c-21.879001 33.005813-90.35852199 62.74948-131.475913 63.03896201-41.425117-0.184879-113.107185-31.035389-135.09565401-64.17013101l-0.20920499-0.294347-0.266372-0.451251c-1.27347801-2.514115-5.273924-7.327057-8.24293901-10.40067499l-0.10460299-0.156904c-5.40650199-5.98668199-12.952495-11.55495399-23.438311-11.55495401-9.957937 0-17.97342599 5.169321-22.63433001 10.310668l-0.21407099 0.21285401c-4.128159 4.261953-7.350167 9.764544-8.514176 12.11567299l-0.214071 0.503553-0.317457 0.452468c-22.093072 32.982703-84.030056 59.602884-125.565858 59.712352-21.081101 0-39.41090599-3.57717001-54.457889-10.595284l-0.104603 0-1.85730701-1.007105c-39.150616-19.36610201-55.499051-46.05318-55.551352-87.407752 0-12.262847 2.171115-24.525693 6.51212901-36.41756499 0.214071-0.480443 0.428141-1.1409 0.585046-1.88163301l0.156904-0.63734699 85.288938-183.37346701c5.668009-15.23186199 11.782404-22.966383 31.861265-22.966383l618.466127 0 0.21407099 0.052301c8.950832 0.503553 21.684391 1.77703001 30.05139401 24.159584l91.20385799 184.998458 0.10460301 0.63613101c0.214071 0.845336 0.532744 1.772165 0.745599 2.62236599 4.34222999 11.897953 6.56564601 24.051332 6.56564599 36.237551C947.981559 446.28515401 939.078163 470.810847 900.507727 490.495623L900.507727 490.495623zM900.507727 490.495623" p-id="1566"></path><path d="M820.662997 930.249187L206.308001 930.249187c-37.700773 0-68.37491799-24.425956-68.374918-61.794676L137.93308201 636.07830999c0-20.809864 10.894497-37.681312 31.70436-37.681312 20.81108 0 32.69808601 16.866584 32.69808599 37.681312l0 231.75466601 619.311463 0L821.646993 636.07830999c0-20.809864 11.891872-37.681312 32.702952-37.681312s34.692836 16.866584 34.692836 37.681312l0 232.37741701C889.042781 905.823231 858.368636 930.249187 820.662997 930.249187L820.662997 930.249187zM820.662997 930.249187" p-id="1567"></path><path d="M770.60937001 310.85258201L250.698484 310.85258201c-17.165796 0-31.08282601-13.91702999-31.08282601-31.08282601 0-17.165796 13.91702999-31.08282601 31.08282601-31.08282599l519.915751 0c17.165796 0 31.08282601 13.91702999 31.082826 31.08282599C801.697061 296.935552 787.780031 310.85258201 770.60937001 310.85258201L770.60937001 310.85258201zM770.60937001 310.85258201" p-id="1568"></path></svg>