<svg t="1593483956690" class="icon" viewBox="0 0 1024 1024" version="1.1" xmlns="http://www.w3.org/2000/svg" p-id="1574" width="200" height="200"><path d="M711.68 90.79466667h-394.80888889c-124.13155555 0-225.05244445 100.92088889-225.05244444 225.05244444v394.92266667c0 124.13155555 100.92088889 225.05244445 225.05244444 225.05244444h394.92266667c124.13155555 0 225.05244445-100.92088889 225.05244444-225.05244444V315.84711111c0-124.01777778-101.03466667-225.05244445-225.16622222-225.05244444z m-394.80888889 48.58311111h394.92266667c97.28 0 176.46933333 79.18933333 176.46933333 176.46933333v44.14577778H140.288v-44.14577778c0-97.28 79.18933333-176.46933333 176.58311111-176.46933333z m83.85422222 465.69244444V408.68977778h218.68088889v196.38044444H400.72533333zM140.288 408.68977778h211.74044445v196.38044444H140.288V408.68977778z m260.43733333 244.96355555h218.68088889v233.58577778H400.72533333V653.65333333z m267.264-48.58311111V408.68977778h220.16v196.38044444H667.98933333z m-527.70133333 105.69955556v-57.11644445h211.74044445v233.58577778h-35.27111112c-97.28 0-176.46933333-79.07555555-176.46933333-176.46933333z m571.392 176.46933333h-43.69066667V653.65333333h220.16v57.11644445c0.11377778 97.39377778-79.07555555 176.46933333-176.46933333 176.46933333z" p-id="1575"></path></svg>