<svg t="1592199329878" class="icon" viewBox="0 0 1024 1024" version="1.1" xmlns="http://www.w3.org/2000/svg" p-id="928" width="200" height="200"><path d="M352.10666667 710.50666667h-31.14666667c-17.17333333 0-31.14666667-14.08-31.14666667-31.14666667 0-17.17333333 13.97333333-31.14666667 31.14666667-31.14666667h31.14666667c17.17333333 0 31.14666667 14.08 31.14666666 31.14666667s-14.08 31.14666667-31.14666666 31.14666667zM352.10666667 454.93333333h-31.14666667c-17.17333333 0-31.14666667-14.08-31.14666667-31.14666666 0-17.17333333 13.97333333-31.14666667 31.14666667-31.14666667h31.14666667c17.17333333 0 31.14666667 14.08 31.14666666 31.14666667s-14.08 31.14666667-31.14666666 31.14666666zM700.8 710.50666667H482.66666667c-17.17333333 0-31.14666667-14.08-31.14666667-31.14666667 0-17.17333333 13.97333333-31.14666667 31.14666667-31.14666667H700.8c17.17333333 0 31.14666667 14.08 31.14666667 31.14666667 0.10666667 17.06666667-13.97333333 31.14666667-31.14666667 31.14666667zM700.90666667 454.93333333H482.66666667c-17.17333333 0-31.14666667-14.08-31.14666667-31.14666666 0-17.17333333 13.97333333-31.14666667 31.14666667-31.14666667H700.8c17.17333333 0 31.14666667 14.08 31.14666667 31.14666667 0.10666667 17.06666667-13.97333333 31.14666667-31.04 31.14666666z" p-id="929"></path><path d="M799.25333333 989.86666667H224.85333333c-52.69333333 0-95.78666667-46.29333333-95.78666666-102.93333334V200.96c0-56.64 43.09333333-102.93333333 95.78666666-102.93333333 17.6 0 31.89333333 15.46666667 31.89333334 34.34666666 0 18.88-14.4 34.34666667-31.89333334 34.34666667-17.6 0-31.89333333 15.46666667-31.89333333 34.34666667v686.08c0 18.88 14.4 34.34666667 31.89333333 34.34666666h574.4c17.6 0 31.89333333-15.46666667 31.89333334-34.34666666V200.96c0-18.88-14.4-34.34666667-31.89333334-34.34666667-17.6 0-31.89333333-15.46666667-31.89333333-34.34666666 0-18.88 14.4-34.34666667 31.89333333-34.34666667 52.69333333 0 95.68 46.29333333 95.68 102.93333333v686.08c0 56.64-43.09333333 102.93333333-95.68 102.93333334z" p-id="930"></path><path d="M607.78666667 96.53333333c11.94666667 0 19.84 6.18666667 23.57333333 9.92 3.73333333 3.73333333 9.92 11.62666667 9.92 23.57333334 0 11.94666667-6.18666667 19.84-9.92 23.57333333-3.73333333 3.73333333-11.62666667 9.92-23.57333333 9.92H416.21333333c-11.94666667 0-19.84-6.18666667-23.57333333-9.92-3.73333333-3.73333333-9.92-11.62666667-9.92-23.57333333 0-11.94666667 6.18666667-19.84 9.81333333-23.57333334 3.73333333-3.73333333 11.62666667-9.92 23.57333334-9.92h191.68m0-62.4H416.21333333c-52.69333333 0-95.68 43.09333333-95.68 95.78666667s43.09333333 95.78666667 95.68 95.78666667h191.46666667c52.69333333 0 95.78666667-43.09333333 95.78666667-95.78666667S660.37333333 34.13333333 607.78666667 34.13333333z" p-id="931"></path></svg>