<svg t="1592192371444" class="icon" viewBox="0 0 1024 1024" version="1.1" xmlns="http://www.w3.org/2000/svg" p-id="793" width="200" height="200"><path d="M872.90311111 990.54933333l1.25155556-0.79644444c12.288-8.53333333 16.95288889-25.25866667 10.92266666-38.79822222-0.45511111-1.024-3.86844445-9.55733333-3.86844444-16.95288889 0-24.46222222 19.91111111-44.37333333 44.37333333-44.37333333h2.048c12.51555555 0 22.41422222-10.01244445 25.37244445-25.48622223 0-0.22755555 4.43733333-22.98311111 4.43733333-41.18755555 0-17.29422222-3.86844445-38.79822222-4.32355555-41.18755556-2.95822222-15.47377778-12.85688889-25.48622222-25.71377778-25.48622222h-1.82044445c-24.46222222 0-44.37333333-19.91111111-44.37333333-44.37333334 0-6.37155555 2.84444445-14.336 3.86844444-16.72533333 6.03022222-13.65333333 1.36533333-30.37866667-12.06044444-39.70844444L821.13422222 626.91555555c-4.096-1.70666667-8.41955555-2.61688889-13.08444444-2.61688888-9.44355555 0-18.65955555 3.86844445-24.80355556 10.24-6.48533333 6.71288889-23.552 20.36622222-35.38488889 20.36622222-11.94666667 0-29.12711111-13.99466667-35.61244444-20.70755556-6.144-6.48533333-15.58755555-10.46755555-25.03111111-10.46755555-4.55111111 0-8.87466667 0.91022222-12.74311111 2.50311111l-1.024 0.34133333-52.79288889 29.01333333-1.25155556 0.79644445c-12.288 8.53333333-16.95288889 25.25866667-10.92266667 38.79822222 0.45511111 1.024 3.98222222 9.55733333 3.98222223 16.95288889 0 24.46222222-19.91111111 44.37333333-44.37333333 44.37333334h-2.048c-12.51555555 0-22.41422222 10.01244445-25.37244445 25.6-0.45511111 2.38933333-4.32355555 23.77955555-4.32355555 41.18755555 0 17.29422222 3.98222222 38.79822222 4.32355555 41.18755555 2.95822222 15.47377778 12.85688889 25.48622222 25.71377778 25.48622223h1.70666667c24.46222222 0 44.37333333 19.91111111 44.37333333 44.37333333 0 6.37155555-2.84444445 14.336-3.86844445 16.72533334-6.03022222 13.65333333-1.36533333 30.26488889 11.94666667 39.70844444l50.85866667 28.33066666c4.096 1.70666667 8.41955555 2.61688889 13.08444444 2.6168889 9.55733333 0 18.88711111-3.98222222 25.03111111-10.69511112 6.25777778-6.82666667 24.00711111-21.73155555 36.18133333-21.73155555 12.288 0 29.92355555 14.90488889 36.4088889 22.18666667 6.144 6.82666667 15.58755555 10.80888889 25.25866666 10.80888888 4.55111111 0 8.87466667-0.91022222 14.10844444-3.18577778l51.42755556-28.55822222zM745.69955555 948.90666667c-14.79111111 0-30.60622222 6.03022222-46.87644444 17.97688888-5.34755555 3.98222222-10.35377778 8.192-15.13244444 12.8568889l-35.49866667-19.79733334c2.048-6.37155555 4.55111111-15.81511111 4.55111111-25.71377778 0-42.78044445-31.85777778-78.50666667-73.61422222-83.968-1.024-6.94044445-2.61688889-18.20444445-2.61688889-27.07911111 0-8.98844445 1.47911111-20.13866667 2.61688889-27.07911111 41.75644445-5.46133333 73.61422222-41.18755555 73.61422222-83.968 0-9.89866667-2.38933333-19.22844445-4.43733333-25.6l38.34311111-21.04888889c3.29955555 3.18577778 8.64711111 7.85066667 15.24622222 12.51555556 16.04266667 11.49155555 31.63022222 17.29422222 46.08 17.29422222 14.336 0 29.696-5.68888889 45.73866667-16.95288889 6.48533333-4.55111111 11.71911111-9.10222222 15.13244444-12.288l36.63644445 20.36622222c-2.048 6.37155555-4.55111111 15.81511111-4.55111112 25.71377778 0 42.78044445 31.85777778 78.50666667 73.61422223 83.968 1.13777778 7.05422222 2.61688889 18.20444445 2.61688889 27.07911111 0 8.87466667-1.47911111 20.02488889-2.61688889 27.07911111C872.56177778 855.60888889 840.81777778 891.33511111 840.81777778 934.11555555c0 9.89866667 2.38933333 19.22844445 4.43733333 25.6l-37.09155556 20.48c-3.29955555-3.29955555-8.64711111-8.192-15.24622222-13.08444444-16.384-12.06044445-32.31288889-18.20444445-47.21777778-18.20444444z" p-id="794"></path><path d="M824.20622222 822.84088889c0-43.12177778-35.15733333-78.27911111-78.27911111-78.27911111s-78.27911111 35.15733333-78.27911111 78.27911111c0 43.23555555 35.15733333 78.27911111 78.27911111 78.27911111s78.27911111-35.15733333 78.27911111-78.27911111z m-78.27911111 38.00177778c-20.93511111 0-38.00177778-17.06666667-38.00177778-38.00177778s17.06666667-38.00177778 38.00177778-38.00177778 38.00177778 17.06666667 38.00177778 38.00177778c-0.11377778 20.93511111-17.06666667 38.00177778-38.00177778 38.00177778zM789.04888889 296.04977778c0-162.24711111-131.52711111-293.888-293.77422222-294.00177778v-0.11377778c-78.05155555 0-152.80355555 30.94755555-207.98577778 86.12977778-55.18222222 55.296-86.24355555 130.048-86.12977778 208.09955555 0 110.02311111 61.09866667 204.8 150.64177778 255.20355556-162.47466667 58.48177778-279.43822222 211.85422222-281.03111111 394.01244444v5.91644445c0.22755555 10.46755555 2.27555555 20.36622222 3.18577777 30.83377778h0.68266667c1.70666667 16.27022222 15.47377778 28.55822222 31.744 28.55822222 16.384 0 30.03733333-12.288 31.744-28.55822222h1.024c-0.91022222-11.03644445-3.29955555-21.61777778-3.29955555-32.768 0-95.34577778 37.77422222-186.70933333 105.13066666-254.17955556 67.35644445-67.35644445 158.83377778-105.24444445 254.17955556-105.24444444l32.65422222-3.29955556c146.65955555-16.27022222 261.23377778-139.37777778 261.23377778-290.58844444zM495.16088889 524.85688889c-126.29333333 0-228.69333333-102.4-228.69333334-228.69333334s102.4-228.69333333 228.69333334-228.69333333 228.69333333 102.4 228.69333333 228.69333333-102.28622222 228.69333333-228.69333333 228.69333334z" p-id="795"></path></svg>