<svg t="1592198076684" class="icon" viewBox="0 0 1024 1024" version="1.1" xmlns="http://www.w3.org/2000/svg" p-id="763" width="200" height="200"><path d="M960.60120031 878.79999969h-325.44c-15.67999969 0-31.36000031-15.67999969-31.36000031-31.35999938s15.67999969-31.36000031 31.36000031-31.36000031h325.44c20.88 0 31.36000031 15.67999969 31.35999938 31.36000031s-15.67999969 31.36000031-31.35999938 31.35999938z m0-99.27999938h-325.44c-15.67999969 0-31.36000031-15.67999969-31.36000031-31.36000031 0-20.88 15.67999969-31.32 31.36000031-31.32h325.44c15.67999969 0 31.36000031 15.67999969 31.35999938 31.32 0 15.67999969-15.67999969 31.36000031-31.35999938 31.36000031z m-173.88-141.32000062a31.12000031 31.12000031 0 0 1-21.6-8.59999969l-1.60000031-1.36000031a413.47999969 413.47999969 0 0 0-251.16-84.67999969c-230.16 0-417.40000031 187.12000031-417.40000031 417.07999969a31.51999969 31.51999969 0 0 1-31.47999938 31.32 31.56 31.56 0 0 1-31.48000031-31.39999969 475.72000031 475.72000031 0 0 1 86.71999969-274.63999969 480.40000031 480.40000031 0 0 1 221.88-173.08000031l28.8-11.04-23.4-20.08000031a255.31999969 255.31999969 0 0 1-89.55999938-194.04C256.44120031 146.72 371.2412 32 512.3612 32c141.12 0 255.96 114.72 255.96 255.67999969a255.31999969 255.31999969 0 0 1-89.56000031 194.04l-23.43999938 20.08000031 28.83999938 11.04c40.15999969 15.36 78.36 36.28000031 113.56000031 62.28l8.56000031 7.00000031a31.27999969 31.27999969 0 0 1 11.91999938 24.6 31.60000031 31.60000031 0 0 1-31.47999938 31.47999938z m-81.36-350.52a193.08 193.08 0 0 0-193.00000031-192.75999938 193.08 193.08 0 0 0-192.96 192.75999938 193.08 193.08 0 0 0 192.96 192.80000062 193.08 193.08 0 0 0 193.00000031-192.80000062z m-70.2 632.92000031h325.44c20.88 0 31.36000031 15.64000031 31.35999938 31.32s-15.67999969 31.36000031-31.35999938 31.36000031h-325.44c-15.67999969 0-31.36000031-15.67999969-31.36000031-31.36000031s15.67999969-31.32 31.36000031-31.32z" p-id="764"></path></svg>