<svg t="1598867763766" class="icon" viewBox="0 0 1024 1024" version="1.1" xmlns="http://www.w3.org/2000/svg" p-id="2978" width="200" height="200"><path d="M350.72 694.61L180.05 523.95l-0.55-0.55-0.3-0.26-0.26-0.3-0.3-0.34-0.21-0.26-0.34-0.38-0.34-0.43-0.64-0.9-0.47-0.6-0.43-0.6-0.43-0.64v-0.26l-0.38-0.38v-0.64l-0.47-0.38v-0.26l-0.55-0.51c-6.8-12.76-4.21-28.49 6.31-38.4l170.03-169.81c12.72-12.27 32.98-11.91 45.25 0.81 11.97 12.41 11.96 32.07-0.02 44.46L279.94 469.33H800c17.67 0 32 14.33 32 32s-14.33 32-32 32H279.94l116.01 116.05c12.93 12.05 13.64 32.3 1.6 45.23-12.05 12.93-32.3 13.64-45.23 1.6a30.18 30.18 0 0 1-1.6-1.6z" p-id="2979"></path></svg>