<svg t="1592202982418" class="icon" viewBox="0 0 1024 1024" version="1.1" xmlns="http://www.w3.org/2000/svg" p-id="989" width="200" height="200"><path d="M352.10556594 460.4842775l-107.36179688-39.6797925c-15.14296031-5.64108281-31.99572844 2.06586469-37.63589531 17.21431687-5.63650594 15.14296031 2.06861062 31.99572844 17.21340188 37.63681125l107.36545781 40.25827125c15.14387625 5.64199781 31.99481344-2.06494875 37.63223437-17.21340187 5.64016688-15.14296031-2.06586469-31.99572844-17.21340187-37.63498031v-0.58122469z m0 0" p-id="990"></path><path d="M974.1138425 220.08336969h-3.50382375a27.93997031 27.93997031 0 0 0-4.66718813-5.25207375h-4.08596249L521.90461625 45.03499156a29.14543969 29.14543969 0 0 0-20.42249344 0L64.44423219 210.16502375h-4.0850475a27.92807156 27.92807156 0 0 0-6.99940875 9.91834594h-3.50016188a28.60174312 28.60174312 0 0 0-4.67085 17.50447218v544.39968657a29.18388281 29.18388281 0 0 0 18.6705825 27.42648l437.62460719 169.21507968a29.18937469 29.18937469 0 0 0 21.00280312 0l437.62369126-167.46682968a29.16923812 29.16923812 0 0 0 18.67058156-27.42281813V237.58692594a28.59167438 28.59167438 0 0 0-4.66718719-17.50355625zM511.98718531 103.38536656l354.18088969 134.20155938-354.18088969 131.86933875-354.18088875-131.86933875L511.98718531 103.38536656zM103.53730906 278.43191375l379.27514719 142.37257125v486.05114344L103.53730906 761.56778094V278.43191375zM920.43157063 760.98289531l-379.26965532 145.87364813V420.8054l379.26965532-142.37257031v482.55006562z m-1e-8 0" p-id="991"></path></svg>