<svg t="1595571039019" class="icon" viewBox="0 0 1024 1024" version="1.1" xmlns="http://www.w3.org/2000/svg" p-id="13532" width="200" height="200"><path d="M332.8 128v64l313.6 115.2c12.8 6.4 25.6 12.8 44.8 12.8 12.8 0 19.2 0 32-6.4l172.8-38.4v505.6l-204.8 51.2-313.6-115.2c-19.2-6.4-32-12.8-44.8-12.8-12.8 0-19.2 0-32 6.4l-172.8 38.4V243.2L332.8 192V128m0 0H320l-204.8 51.2c-32 6.4-51.2 32-51.2 64v505.6c0 38.4 32 64 64 64h12.8l172.8-38.4h12.8c6.4 0 12.8 0 19.2 6.4l313.6 115.2c6.4 0 12.8 6.4 19.2 6.4h12.8l204.8-51.2c32-6.4 51.2-32 51.2-64v-512c0-38.4-32-64-64-64h-12.8l-166.4 38.4h-12.8c-6.4 0-12.8 0-19.2-6.4l-320-108.8c-6.4 0-12.8-6.4-19.2-6.4zM448 608v-256c0-19.2-12.8-32-32-32s-32 12.8-32 32v256c0 19.2 12.8 32 32 32s32-12.8 32-32z m256 64v-256c0-19.2-12.8-32-32-32s-32 12.8-32 32v256c0 19.2 12.8 32 32 32s32-12.8 32-32z" fill="" p-id="13533"></path></svg>