<svg t="1593656954907" class="icon" viewBox="0 0 1024 1024" version="1.1" xmlns="http://www.w3.org/2000/svg" p-id="1504" width="200" height="200"><path d="M811.8359375 91.94374999H211.94374999c-66.27375001 0-120 53.72624999-119.99999998 120.00000002v599.89218749c0 66.27375001 53.72624999 120 120 120h599.89218749c66.27375001 0 120-53.72624999 120-120V211.94374999c0-66.27375001-53.72624999-120-120-119.99999998zM871.8921875 812a59.8453125 59.8453125 0 0 1-59.9746875 59.893125H212.0825c-16.0425 0-31.190625-6.1640625-42.53625001-17.50875s-17.65875001-26.341875-17.65874999-42.384375V212a60.22124999 60.22124999 0 0 1 60.195-60.1125h599.835A60.035625 60.035625 0 0 1 871.8921875 212V812z" p-id="1505"></path><path d="M774.498125 361.86125001H534.5a29.971875 29.971875 0 0 0 0 59.94374999h240a29.971875 29.971875 0 0 0 0-59.94374999z m0 240.11343749H534.5a29.971875 29.971875 0 0 0 0 59.94375h240a29.971875 29.971875 0 0 0 0-59.94375z m-419.99625-74.9765625c-57.99 0-104.986875 47.01-104.986875 104.9859375S296.525 736.971875 354.501875 736.971875s104.9859375-47.01 104.9859375-104.986875-46.996875-104.9859375-104.9859375-104.9859375z m31.858125 136.85812501a45.0421875 45.0421875 0 1 1 13.2075-31.85812501 44.761875 44.761875 0 0 1-13.2075 31.861875z m36.94875001-353.04937501L324.4990625 409.6128125l-38.8040625-38.8078125a29.971875 29.971875 0 1 0-42.3871875 42.3871875l59.9971875 60.001875a29.971875 29.971875 0 0 0 42.388125 0l120-120a29.971875 29.971875 0 0 0-42.38437499-42.3871875z" p-id="1506"></path></svg>