<svg t="1593483632551" class="icon" viewBox="0 0 1024 1024" version="1.1" xmlns="http://www.w3.org/2000/svg" p-id="1412" width="200" height="200"><path d="M512 992C246.9125 992 32 777.0875 32 512S246.9125 32 512 32s480 214.9125 480 480-214.9125 480-480 480z m101.4403125-256.0003125c120.3196875 0 217.92-107.2959375 217.92-239.6475 0-132.320625-97.6003125-239.615625-217.92-239.615625H468.0959375v479.263125h145.3125z m-392.4159375 0c96.31875001 0 174.399375-75.7434375 174.39937501-169.15125V256.735625h-58.11187501V566.815625c0 62.304375-52.03125001 112.8-116.25562499 112.8h-29.05593751v56.3840625h29.05593751z" p-id="1413"></path><path d="M613.4403125 313.1196875h-87.2325v366.46406249h87.200625c88.2871875 0 159.84-82.048125 159.84-183.23156249S701.695625 313.11874999 613.4084375 313.11874999z" p-id="1414"></path></svg>