<svg t="1593483665574" class="icon" viewBox="0 0 1024 1024" version="1.1" xmlns="http://www.w3.org/2000/svg" p-id="1413" width="200" height="200"><path d="M728.74833173 641.8998112c-0.10656213-0.85250133-0.21312533-1.27875093-0.21312533-1.27875093V406.6095872c0-88.76664747-75.44632213-98.0375936-226.65865387-43.903792l39.21503787 4.4756288c-3.09031573 10.3365728-10.54969707 39.21503787-25.0422112 39.21503787h187.01736533V457.12026027h-101.55415893v50.83036053h101.55415893v25.46846187h-101.55415893v101.9804096c0-5.6478176 34.31315733-13.32032533 48.16629547-23.55033494L640.40793493 574.33912213l53.92067627-16.6237664 34.41972053 84.18445547zM429.84023467 507.84405867h70.11819093v-50.8303616h-20.24689387c-25.25533653 24.5093984-48.27285867 49.12535893-49.87129706 50.8303616z m82.15976533-473.24451414c-263.63587627 0-477.40045547 213.7645792-477.40045547 477.40045547s213.7645792 477.40045547 477.40045547 477.40045547 477.40045547-213.7645792 477.40045547-477.40045547-213.7645792-477.40045547-477.40045547-477.40045547zM292.0547904 264.1353888c32.92784427 0 59.56849387 23.9765856 59.56849387 53.38786347s-26.64065067 53.28130133-59.56849387 53.28130026-59.56849387-23.9765856-59.56849493-53.28130026c0-29.41127787 26.7472128-53.38786347 59.56849493-53.38786347z m49.76473493 320.54030507c-15.66470293 48.59254613-11.82844907 30.6900288-74.1675712 166.02453333l-90.25852373-56.371616s100.70165867-91.64383787 121.4813664-133.41637653c21.95189547-44.22347947-24.18971093-67.7738144-24.18971093-67.77381547l-69.15912854-43.15785387 37.40347307-57.65036693c52.21567467 38.7887872 56.05192853 42.0922272 91.3241504 77.25788587 27.06690133 27.49315093 23.65689707 65.32287467 7.56594453 115.0876096zM832.64686827 647.86731733c-17.5828288 165.2785952-232.5195968 103.7919744-232.5195968 103.79197334l11.61532373-47.207232 41.6659776 10.7628224c52.9616128 3.4100032 69.90506667-21.84533333 74.5938208-43.7972288l-54.87973973 22.8043968-11.61532374-43.58410454c-29.41127787 22.59127147-90.5782112 55.09286507-197.247376 52.21567467-114.12854613 2.8771904-84.8238304-135.76075413-84.8238304-135.76075413l2.8771904-8.525008H462.4483904c-0.5328128 25.46846187-7.4593824 51.57629867 2.02468907 66.6016256 7.56594453 12.14813653 22.69783467 17.90251733 35.378784 18.43533013V533.31252053H372.9358048v-25.46846186h56.69130453l-34.95253333-30.58346667c24.93564907-26.2144 49.87129707-67.7738144 65.21631147-95.48009067-12.5743872 5.1150048-25.46846187 10.54969707-38.57566187 16.30407787-13.00063787 16.30407787-27.81283947 33.35409387-44.4366048 49.87129707 0.639376 0.85250133-57.33067947-32.5015936-57.33067947-32.5015936 59.8881824-51.15004907 93.56196373-160.80296533 93.5619648-160.80296534l83.43851627 23.3372096s-6.9265696 16.19751573-21.0993952 41.0266016c333.75406827-94.41446507 353.14846187 57.97005547 353.14846187 57.97005547s21.632208 105.60353813 4.0493792 270.88213333z m-104.11166187-241.25773013c0-88.76664747-75.44632213-98.0375936-226.65865387-43.903792l39.21503787 4.4756288c-3.09031573 10.3365728-10.54969707 39.21503787-25.0422112 39.21503787h187.01736533V457.12026027h-101.55415893v50.83036053h101.55415893v25.46846187h-101.55415893v101.9804096c0-5.6478176 34.31315733-13.32032533 48.16629547-23.55033494L640.40793493 574.33912213l53.92067627-16.6237664 34.41972053 84.18445547c-0.10656213-0.85250133-0.21312533-1.27875093-0.21312533-1.27875093V406.6095872z m-298.69497173 101.23447147h70.11819093v-50.8303616h-20.24689387c-25.25533653 24.5093984-48.27285867 49.12535893-49.87129706 50.8303616z" p-id="1414"></path><path d="M728.74833173 641.8998112c-0.10656213-0.85250133-0.21312533-1.27875093-0.21312533-1.27875093V406.6095872c0-88.76664747-75.44632213-98.0375936-226.65865387-43.903792l39.21503787 4.4756288c-3.09031573 10.3365728-10.54969707 39.21503787-25.0422112 39.21503787h187.01736533V457.12026027h-101.55415893v50.83036053h101.55415893v25.46846187h-101.55415893v101.9804096c0-5.6478176 34.31315733-13.32032533 48.16629547-23.55033494L640.40793493 574.33912213l53.92067627-16.6237664 34.41972053 84.18445547zM429.84023467 507.84405867h70.11819093v-50.8303616h-20.24689387c-25.25533653 24.5093984-48.27285867 49.12535893-49.87129706 50.8303616z m82.15976533-473.24451414c-263.63587627 0-477.40045547 213.7645792-477.40045547 477.40045547s213.7645792 477.40045547 477.40045547 477.40045547 477.40045547-213.7645792 477.40045547-477.40045547-213.7645792-477.40045547-477.40045547-477.40045547zM292.0547904 264.1353888c32.92784427 0 59.56849387 23.9765856 59.56849387 53.38786347s-26.64065067 53.28130133-59.56849387 53.28130026-59.56849387-23.9765856-59.56849493-53.28130026c0-29.41127787 26.7472128-53.38786347 59.56849493-53.38786347z m49.76473493 320.54030507c-15.66470293 48.59254613-11.82844907 30.6900288-74.1675712 166.02453333l-90.25852373-56.371616s100.70165867-91.64383787 121.4813664-133.41637653c21.95189547-44.22347947-24.18971093-67.7738144-24.18971093-67.77381547l-69.15912854-43.15785387 37.40347307-57.65036693c52.21567467 38.7887872 56.05192853 42.0922272 91.3241504 77.25788587 27.06690133 27.49315093 23.65689707 65.32287467 7.56594453 115.0876096zM832.64686827 647.86731733c-17.5828288 165.2785952-232.5195968 103.7919744-232.5195968 103.79197334l11.61532373-47.207232 41.6659776 10.7628224c52.9616128 3.4100032 69.90506667-21.84533333 74.5938208-43.7972288l-54.87973973 22.8043968-11.61532374-43.58410454c-29.41127787 22.59127147-90.5782112 55.09286507-197.247376 52.21567467-114.12854613 2.8771904-84.8238304-135.76075413-84.8238304-135.76075413l2.8771904-8.525008H462.4483904c-0.5328128 25.46846187-7.4593824 51.57629867 2.02468907 66.6016256 7.56594453 12.14813653 22.69783467 17.90251733 35.378784 18.43533013V533.31252053H372.9358048v-25.46846186h56.69130453l-34.95253333-30.58346667c24.93564907-26.2144 49.87129707-67.7738144 65.21631147-95.48009067-12.5743872 5.1150048-25.46846187 10.54969707-38.57566187 16.30407787-13.00063787 16.30407787-27.81283947 33.35409387-44.4366048 49.87129707 0.639376 0.85250133-57.33067947-32.5015936-57.33067947-32.5015936 59.8881824-51.15004907 93.56196373-160.80296533 93.5619648-160.80296534l83.43851627 23.3372096s-6.9265696 16.19751573-21.0993952 41.0266016c333.75406827-94.41446507 353.14846187 57.97005547 353.14846187 57.97005547s21.632208 105.60353813 4.0493792 270.88213333z m-104.11166187-241.25773013c0-88.76664747-75.44632213-98.0375936-226.65865387-43.903792l39.21503787 4.4756288c-3.09031573 10.3365728-10.54969707 39.21503787-25.0422112 39.21503787h187.01736533V457.12026027h-101.55415893v50.83036053h101.55415893v25.46846187h-101.55415893v101.9804096c0-5.6478176 34.31315733-13.32032533 48.16629547-23.55033494L640.40793493 574.33912213l53.92067627-16.6237664 34.41972053 84.18445547c-0.10656213-0.85250133-0.21312533-1.27875093-0.21312533-1.27875093V406.6095872z m-298.69497173 101.23447147h70.11819093v-50.8303616h-20.24689387c-25.25533653 24.5093984-48.27285867 49.12535893-49.87129706 50.8303616z" p-id="1415"></path></svg>